<svg width="16" height="16" fill="none" xmlns="http://www.w3.org/2000/svg"><path fill-rule="evenodd" clip-rule="evenodd" d="M9 3a2 2 0 0 0-2 2v6a2 2 0 1 0 4 0V5a2 2 0 0 0-2-2Zm0 1a1 1 0 1 0 0 2 1 1 0 0 0 0-2Zm-1 7a1 1 0 1 1 2 0 1 1 0 0 1-2 0Zm1-4H8v2h1V7Z" fill="#000"/><path fill-rule="evenodd" clip-rule="evenodd" d="M4 0a2 2 0 0 0-2 2v12a2 2 0 0 0 2 2h8a2 2 0 0 0 2-2V2a2 2 0 0 0-2-2H4Zm8 2v12H6V2h6ZM9 3a2 2 0 0 0-2 2v6a2 2 0 1 0 4 0V5a2 2 0 0 0-2-2Zm0 1a1 1 0 1 0 0 2 1 1 0 0 0 0-2ZM8 7h1v2H8V7Zm0 4a1 1 0 1 1 2 0 1 1 0 0 1-2 0Z" fill="#000"/></svg>