<?xml version="1.0" encoding="UTF-8"?>
<svg height="128px" viewBox="0 0 128 128" width="128px" xmlns="http://www.w3.org/2000/svg" xmlns:xlink="http://www.w3.org/1999/xlink">
    <filter id="a" height="100%" width="100%" x="0%" y="0%">
        <feColorMatrix color-interpolation-filters="sRGB" values="0 0 0 0 1 0 0 0 0 1 0 0 0 0 1 0 0 0 1 0"/>
    </filter>
    <linearGradient id="b" gradientUnits="userSpaceOnUse" x1="20" x2="90" y1="120" y2="120">
        <stop offset="0" stop-color="#c64600"/>
        <stop offset="0.057" stop-color="#ff7800"/>
        <stop offset="0.145" stop-color="#c64600"/>
    </linearGradient>
    <linearGradient id="c" gradientUnits="userSpaceOnUse" x1="108" x2="90" y1="120" y2="120">
        <stop offset="0" stop-color="#c0bfbc"/>
        <stop offset="0.333" stop-color="#deddda"/>
        <stop offset="1" stop-color="#9a9996"/>
    </linearGradient>
    <clipPath id="d">
        <rect height="128" width="128"/>
    </clipPath>
    <clipPath id="e">
        <rect height="128" width="128"/>
    </clipPath>
    <mask id="f">
        <g filter="url(#a)">
            <g clip-path="url(#e)" filter="url(#a)">
                <g clip-path="url(#d)">
                    <path d="m 20 17 c 0 -4.96875 4.03125 -9 9 -9 h 61 v 112 h -61 c -4.96875 0 -9 -4.03125 -9 -9 z m 0 0" fill="url(#b)"/>
                    <path d="m 20 17 c 0 -4.96875 4.03125 -9 9 -9 h 61 v 100 h -61 c -4.96875 0 -9 -4.03125 -9 -9 z m 0 0" fill="#ff7800"/>
                    <path d="m 90 87 h 18 v 24 c 0 4.96875 -4.03125 9 -9 9 h -9 z m 0 0" fill="url(#c)"/>
                    <path d="m 107 51 h 3 c 1.65625 0 3 1.34375 3 3 v 13 c 0 1.65625 -1.34375 3 -3 3 h -3 c -1.65625 0 -3 -1.34375 -3 -3 v -13 c 0 -1.65625 1.34375 -3 3 -3 z m 0 0" fill="#5e5c64"/>
                    <path d="m 107 51 h 3 c 1.65625 0 3 1.34375 3 3 v 9 c 0 1.65625 -1.34375 3 -3 3 h -3 c -1.65625 0 -3 -1.34375 -3 -3 v -9 c 0 -1.65625 1.34375 -3 3 -3 z m 0 0" fill="#9a9996"/>
                    <path d="m 107 19 h 3 c 1.65625 0 3 1.34375 3 3 v 7 c 0 1.65625 -1.34375 3 -3 3 h -3 c -1.65625 0 -3 -1.34375 -3 -3 v -7 c 0 -1.65625 1.34375 -3 3 -3 z m 0 0" fill="#5e5c64"/>
                    <path d="m 107 19 h 3 c 1.65625 0 3 1.34375 3 3 v 3 c 0 1.65625 -1.34375 3 -3 3 h -3 c -1.65625 0 -3 -1.34375 -3 -3 v -3 c 0 -1.65625 1.34375 -3 3 -3 z m 0 0" fill="#9a9996"/>
                    <path d="m 107 35 h 3 c 1.65625 0 3 1.34375 3 3 v 7 c 0 1.65625 -1.34375 3 -3 3 h -3 c -1.65625 0 -3 -1.34375 -3 -3 v -7 c 0 -1.65625 1.34375 -3 3 -3 z m 0 0" fill="#5e5c64"/>
                    <path d="m 107 35 h 3 c 1.65625 0 3 1.34375 3 3 v 3 c 0 1.65625 -1.34375 3 -3 3 h -3 c -1.65625 0 -3 -1.34375 -3 -3 v -3 c 0 -1.65625 1.34375 -3 3 -3 z m 0 0" fill="#9a9996"/>
                    <path d="m 90 8 h 9 c 4.96875 0 9 4.03125 9 9 v 82 c 0 4.96875 -4.03125 9 -9 9 h -9 z m 0 0" fill="#deddda"/>
                    <path d="m 41 30 h 32 c 1.65625 0 3 1.34375 3 3 v 54 c 0 1.65625 -1.34375 3 -3 3 h -32 c -1.65625 0 -3 -1.34375 -3 -3 v -54 c 0 -1.65625 1.34375 -3 3 -3 z m 0 0" fill="#241f31"/>
                    <path d="m 60 37 c 4.417969 0 8 3.582031 8 8 v 29 c 0 4.417969 -3.582031 8 -8 8 s -8 -3.582031 -8 -8 v -29 c 0 -4.417969 3.582031 -8 8 -8 z m 0 0" fill="#77767b"/>
                    <path d="m 64 74 c 0 2.210938 -1.789062 4 -4 4 s -4 -1.789062 -4 -4 s 1.789062 -4 4 -4 s 4 1.789062 4 4 z m 0 0"/>
                    <path d="m 64 45 c 0 2.210938 -1.789062 4 -4 4 s -4 -1.789062 -4 -4 s 1.789062 -4 4 -4 s 4 1.789062 4 4 z m 0 0"/>
                    <path d="m 57 53 h 6 v 13 h -6 z m 0 0"/>
                    <path d="m 38 33 h 7 v 57 h -5 c -1.105469 0 -2 -0.894531 -2 -2 z m 0 0" fill="#77767b"/>
                    <path d="m 38 33 c 0 -1.65625 1.34375 -3 3 -3 h 32 c 1.65625 0 3 1.34375 3 3 z m 0 0"/>
                    <path d="m 38 33 c 0 -1.65625 1.34375 -3 3 -3 h 4 v 3 z m 0 0" fill="#5e5c64"/>
                    <path d="m 83 110 c 2.210938 0 4 1.789062 4 4 s -1.789062 4 -4 4 s -4 -1.789062 -4 -4 s 1.789062 -4 4 -4 z m 0 0" fill="#ff7800"/>
                    <path d="m 83 112 c 1.105469 0 2 0.894531 2 2 s -0.894531 2 -2 2 s -2 -0.894531 -2 -2 s 0.894531 -2 2 -2 z m 0 0" fill="#241f31"/>
                    <path d="m 72 110 c 2.210938 0 4 1.789062 4 4 s -1.789062 4 -4 4 s -4 -1.789062 -4 -4 s 1.789062 -4 4 -4 z m 0 0" fill="#ff7800"/>
                    <path d="m 72 112 c 1.105469 0 2 0.894531 2 2 s -0.894531 2 -2 2 s -2 -0.894531 -2 -2 s 0.894531 -2 2 -2 z m 0 0" fill="#241f31"/>
                    <path d="m 90 20 h -70" fill="none" stroke="#e66100" stroke-width="4"/>
                </g>
            </g>
        </g>
    </mask>
    <mask id="g">
        <g filter="url(#a)">
            <rect fill-opacity="0.8" height="184.32" width="184.32" x="-28.16" y="-28.16"/>
        </g>
    </mask>
    <linearGradient id="h" gradientTransform="matrix(0 0.37 -0.98462 0 295.38501 -30.360001)" gradientUnits="userSpaceOnUse" x1="300" x2="428" y1="235" y2="235">
        <stop offset="0" stop-color="#f9f06b"/>
        <stop offset="1" stop-color="#f5c211"/>
    </linearGradient>
    <clipPath id="i">
        <rect height="128" width="128"/>
    </clipPath>
    <clipPath id="j">
        <rect height="128" width="128"/>
    </clipPath>
    <path d="m 20 17 c 0 -4.96875 4.03125 -9 9 -9 h 61 v 112 h -61 c -4.96875 0 -9 -4.03125 -9 -9 z m 0 0" fill="url(#b)"/>
    <path d="m 20 17 c 0 -4.96875 4.03125 -9 9 -9 h 61 v 100 h -61 c -4.96875 0 -9 -4.03125 -9 -9 z m 0 0" fill="#ff7800"/>
    <path d="m 90 87 h 18 v 24 c 0 4.96875 -4.03125 9 -9 9 h -9 z m 0 0" fill="url(#c)"/>
    <path d="m 107 51 h 3 c 1.65625 0 3 1.34375 3 3 v 13 c 0 1.65625 -1.34375 3 -3 3 h -3 c -1.65625 0 -3 -1.34375 -3 -3 v -13 c 0 -1.65625 1.34375 -3 3 -3 z m 0 0" fill="#5e5c64"/>
    <path d="m 107 51 h 3 c 1.65625 0 3 1.34375 3 3 v 9 c 0 1.65625 -1.34375 3 -3 3 h -3 c -1.65625 0 -3 -1.34375 -3 -3 v -9 c 0 -1.65625 1.34375 -3 3 -3 z m 0 0" fill="#9a9996"/>
    <path d="m 107 19 h 3 c 1.65625 0 3 1.34375 3 3 v 7 c 0 1.65625 -1.34375 3 -3 3 h -3 c -1.65625 0 -3 -1.34375 -3 -3 v -7 c 0 -1.65625 1.34375 -3 3 -3 z m 0 0" fill="#5e5c64"/>
    <path d="m 107 19 h 3 c 1.65625 0 3 1.34375 3 3 v 3 c 0 1.65625 -1.34375 3 -3 3 h -3 c -1.65625 0 -3 -1.34375 -3 -3 v -3 c 0 -1.65625 1.34375 -3 3 -3 z m 0 0" fill="#9a9996"/>
    <path d="m 107 35 h 3 c 1.65625 0 3 1.34375 3 3 v 7 c 0 1.65625 -1.34375 3 -3 3 h -3 c -1.65625 0 -3 -1.34375 -3 -3 v -7 c 0 -1.65625 1.34375 -3 3 -3 z m 0 0" fill="#5e5c64"/>
    <path d="m 107 35 h 3 c 1.65625 0 3 1.34375 3 3 v 3 c 0 1.65625 -1.34375 3 -3 3 h -3 c -1.65625 0 -3 -1.34375 -3 -3 v -3 c 0 -1.65625 1.34375 -3 3 -3 z m 0 0" fill="#9a9996"/>
    <path d="m 90 8 h 9 c 4.96875 0 9 4.03125 9 9 v 82 c 0 4.96875 -4.03125 9 -9 9 h -9 z m 0 0" fill="#deddda"/>
    <path d="m 41 30 h 32 c 1.65625 0 3 1.34375 3 3 v 54 c 0 1.65625 -1.34375 3 -3 3 h -32 c -1.65625 0 -3 -1.34375 -3 -3 v -54 c 0 -1.65625 1.34375 -3 3 -3 z m 0 0" fill="#241f31"/>
    <path d="m 60 37 c 4.417969 0 8 3.582031 8 8 v 29 c 0 4.417969 -3.582031 8 -8 8 s -8 -3.582031 -8 -8 v -29 c 0 -4.417969 3.582031 -8 8 -8 z m 0 0" fill="#77767b"/>
    <path d="m 64 74 c 0 2.210938 -1.789062 4 -4 4 s -4 -1.789062 -4 -4 s 1.789062 -4 4 -4 s 4 1.789062 4 4 z m 0 0"/>
    <path d="m 64 45 c 0 2.210938 -1.789062 4 -4 4 s -4 -1.789062 -4 -4 s 1.789062 -4 4 -4 s 4 1.789062 4 4 z m 0 0"/>
    <path d="m 57 53 h 6 v 13 h -6 z m 0 0"/>
    <path d="m 38 33 h 7 v 57 h -5 c -1.105469 0 -2 -0.894531 -2 -2 z m 0 0" fill="#77767b"/>
    <path d="m 38 33 c 0 -1.65625 1.34375 -3 3 -3 h 32 c 1.65625 0 3 1.34375 3 3 z m 0 0"/>
    <path d="m 38 33 c 0 -1.65625 1.34375 -3 3 -3 h 4 v 3 z m 0 0" fill="#5e5c64"/>
    <path d="m 83 110 c 2.210938 0 4 1.789062 4 4 s -1.789062 4 -4 4 s -4 -1.789062 -4 -4 s 1.789062 -4 4 -4 z m 0 0" fill="#ff7800"/>
    <path d="m 83 112 c 1.105469 0 2 0.894531 2 2 s -0.894531 2 -2 2 s -2 -0.894531 -2 -2 s 0.894531 -2 2 -2 z m 0 0" fill="#241f31"/>
    <path d="m 72 110 c 2.210938 0 4 1.789062 4 4 s -1.789062 4 -4 4 s -4 -1.789062 -4 -4 s 1.789062 -4 4 -4 z m 0 0" fill="#ff7800"/>
    <path d="m 72 112 c 1.105469 0 2 0.894531 2 2 s -0.894531 2 -2 2 s -2 -0.894531 -2 -2 s 0.894531 -2 2 -2 z m 0 0" fill="#241f31"/>
    <path d="m 90 20 h -70" fill="none" stroke="#e66100" stroke-width="4"/>
    <g mask="url(#f)">
        <g clip-path="url(#j)">
            <g mask="url(#g)">
                <g clip-path="url(#i)">
                    <path d="m 128 80.640625 v 47.359375 h -128 v -47.359375 z m 0 0" fill="url(#h)"/>
                    <path d="m 13.308594 80.640625 l 47.355468 47.359375 h 21.214844 l -47.359375 -47.359375 z m 42.421875 0 l 47.363281 47.359375 h 21.214844 l -47.363282 -47.359375 z m 42.429687 0 l 29.839844 29.839844 v -21.210938 l -8.628906 -8.628906 z m -98.160156 7.90625 v 21.214844 l 18.238281 18.238281 h 21.214844 z m 0 0"/>
                </g>
            </g>
        </g>
    </g>
</svg>
