<svg width="128" height="128" fill="none" xmlns="http://www.w3.org/2000/svg"><path d="M20 17a9 9 0 0 1 9-9h70a9 9 0 0 1 9 9v94a9 9 0 0 1-9 9H29a9 9 0 0 1-9-9V17Z" fill="url(#a)"/><rect x="20" y="8" width="88" height="100" rx="9" fill="#FF7800"/><path d="M90 87h18v24a9 9 0 0 1-9 9h-9V87Z" fill="url(#b)"/><rect x="104" y="51" width="9" height="19" rx="3" fill="#5E5C64"/><rect x="104" y="51" width="9" height="15" rx="3" fill="#9A9996"/><rect x="104" y="19" width="9" height="13" rx="3" fill="#5E5C64"/><rect x="104" y="19" width="9" height="9" rx="3" fill="#9A9996"/><rect x="104" y="35" width="9" height="13" rx="3" fill="#5E5C64"/><rect x="104" y="35" width="9" height="9" rx="3" fill="#9A9996"/><path d="M90 8h9a9 9 0 0 1 9 9v82a9 9 0 0 1-9 9h-9V8Z" fill="#DEDDDA"/><rect x="41" y="34" width="30" height="52" rx="2" fill="#241F31"/><rect x="52" y="40" width="14" height="43" rx="7" fill="#77767B"/><circle cx="59" cy="76" r="4" fill="#000"/><circle cx="59" cy="47" r="4" fill="#000"/><path fill="#000" d="M56 55h6v13h-6z"/><path d="M41 36h6v50h-4a2 2 0 0 1-2-2V36Z" fill="#77767B"/><path d="M41 36a2 2 0 0 1 2-2h26a2 2 0 0 1 2 2H41Z" fill="#000"/><path d="M41 36a2 2 0 0 1 2-2h4v2h-6Z" fill="#5E5C64"/><rect x="79" y="110" width="8" height="8" rx="4" fill="#FF7800"/><rect x="81" y="112" width="4" height="4" rx="2" fill="#241F31"/><rect x="68" y="110" width="8" height="8" rx="4" fill="#FF7800"/><rect x="70" y="112" width="4" height="4" rx="2" fill="#241F31"/><path d="M90 20H20" stroke="#E66100" stroke-width="4"/><defs><linearGradient id="a" x1="20" y1="120" x2="108" y2="120" gradientUnits="userSpaceOnUse"><stop stop-color="#C64600"/><stop offset=".047" stop-color="#FF7800"/><stop offset=".109" stop-color="#C64600"/></linearGradient><linearGradient id="b" x1="108" y1="120" x2="90" y2="120" gradientUnits="userSpaceOnUse"><stop stop-color="#C0BFBC"/><stop offset=".333" stop-color="#DEDDDA"/><stop offset="1" stop-color="#9A9996"/></linearGradient></defs></svg>